HIERARCHY
ROOT root
{
	OFFSET 0.000000 0.000000 0.000000
	CHANNELS 6 Xposition Yposition Zposition Zrotation Yrotation Xrotation
	JOINT lhip
	{
		OFFSET 0.058581 -0.082280 -0.017664
		CHANNELS 3 Zrotation Yrotation Xrotation
		JOINT lknee
		{
			OFFSET 0.043451 -0.386469 0.008037
			CHANNELS 3 Zrotation Yrotation Xrotation
			JOINT lankle
			{
				OFFSET -0.014790 -0.426874 -0.037428
				CHANNELS 3 Zrotation Yrotation Xrotation
				JOINT ltoe
				{
					OFFSET 0.041054 -0.060286 0.122042
					CHANNELS 3 Zrotation Yrotation Xrotation
					End Site
					{
						OFFSET 0.000000 0.000000 0.000000
					}
				}
			}
		}
	}
	JOINT rhip
	{
		OFFSET -0.060310 -0.090513 -0.013543
		CHANNELS 3 Zrotation Yrotation Xrotation
		JOINT rknee
		{
			OFFSET -0.043257 -0.383688 -0.004843
			CHANNELS 3 Zrotation Yrotation Xrotation
			JOINT rankle
			{
				OFFSET 0.019056 -0.420046 -0.034562
				CHANNELS 3 Zrotation Yrotation Xrotation
				JOINT rtoe
				{
					OFFSET -0.034840 -0.062106 0.130323
					CHANNELS 3 Zrotation Yrotation Xrotation
					End Site
					{
						OFFSET 0.000000 0.000000 0.000000
					}
				}
			}
		}
	}
	JOINT lowerback
	{
		OFFSET 0.004439 0.124404 -0.038385
		CHANNELS 3 Zrotation Yrotation Xrotation
		JOINT upperback
		{
			OFFSET 0.004488 0.137956 0.026820
			CHANNELS 3 Zrotation Yrotation Xrotation
			JOINT chest
			{
				OFFSET -0.002265 0.056032 0.002855
				CHANNELS 3 Zrotation Yrotation Xrotation
				JOINT lowerneck
				{
					OFFSET -0.013390 0.211636 -0.033468
					CHANNELS 3 Zrotation Yrotation Xrotation
					JOINT upperneck
					{
						OFFSET 0.010113 0.088937 0.050410
						CHANNELS 3 Zrotation Yrotation Xrotation
						End Site
						{
							OFFSET 0.000000 0.000000 0.000000
						}
					}
				}
				JOINT lclavicle
				{
					OFFSET 0.071702 0.114000 -0.018898
					CHANNELS 3 Zrotation Yrotation Xrotation
					JOINT lshoulder
					{
						OFFSET 0.122921 0.045205 -0.019046
						CHANNELS 3 Zrotation Yrotation Xrotation
						JOINT lelbow
						{
							OFFSET 0.255332 -0.015649 -0.022946
							CHANNELS 3 Zrotation Yrotation Xrotation
							JOINT lwrist
							{
								OFFSET 0.265709 0.012698 -0.007375
								CHANNELS 3 Zrotation Yrotation Xrotation
								End Site
								{
									OFFSET 0.000000 0.000000 0.000000
								}
							}
						}
					}
				}
				JOINT rclavicle
				{
					OFFSET -0.082954 0.112472 -0.023707
					CHANNELS 3 Zrotation Yrotation Xrotation
					JOINT rshoulder
					{
						OFFSET -0.113228 0.046853 -0.008472
						CHANNELS 3 Zrotation Yrotation Xrotation
						JOINT relbow
						{
							OFFSET -0.260127 -0.014369 -0.031269
							CHANNELS 3 Zrotation Yrotation Xrotation
							JOINT rwrist
							{
								OFFSET -0.269108 0.006794 -0.006027
								CHANNELS 3 Zrotation Yrotation Xrotation
								End Site
								{
									OFFSET 0.000000 0.000000 0.000000
								}
							}
						}
					}
				}
			}
		}
	}
}
MOTION
Frames: 10
Frame Time: 0.033333
0.134393 2.172706 0.937347 -6.024482 -1.864766 104.529717 5.175573 -10.047695 -56.010582 -8.317435 16.691665 45.989194 8.994508 16.235029 -15.347993 0.000000 -0.000000 0.000000 -4.174771 -4.564110 7.770174 5.846125 0.374177 24.470612 7.756148 -4.106713 6.154381 0.000000 -0.000000 0.000000 -6.159961 14.893136 13.958477 2.228720 -4.193417 5.327319 1.083395 0.850731 -5.934006 1.690268 -3.759235 -7.550110 -2.119228 -0.301693 -0.246832 -17.249836 8.594965 0.208805 -63.681242 0.244315 12.653486 27.628039 -46.087303 -14.819745 3.070186 -6.667445 -1.534579 19.772891 4.761077 -0.125815 48.837148 13.720076 15.142243 -18.167070 51.879302 -4.233137 -5.408951 6.229155 -2.134472 
0.133621 2.118628 0.943097 -4.204179 -2.295766 105.468945 3.734454 -12.226722 -52.401026 -8.847316 15.837056 45.291113 10.901877 17.759402 -17.362453 0.000000 -0.000000 0.000000 -5.564253 -4.640219 0.924869 6.777462 -2.255121 37.830647 9.119268 -4.517145 15.243403 0.000000 -0.000000 0.000000 -7.570050 13.251295 13.327686 3.025047 -4.286693 6.119443 1.038663 0.460273 -6.494234 2.520064 -4.913741 -9.143247 -0.847304 1.239196 0.538706 -19.155717 6.600878 0.053290 -61.943014 -1.800456 13.027954 27.981110 -46.835532 -16.608276 5.924813 -6.973695 -0.420429 21.065033 4.055634 0.205430 49.028709 12.235153 14.346328 -16.527103 51.977087 -3.884205 -6.681990 5.676982 -1.609875 
0.133062 2.064267 0.948251 -2.011669 -2.627177 105.813395 1.367925 -13.532433 -47.472229 -10.246744 12.711792 44.122028 11.424244 19.796924 -19.724149 0.000000 -0.000000 0.000000 -6.509404 -4.395599 -7.638248 6.288630 -6.198070 53.022167 6.278686 -7.322640 16.896788 0.000000 -0.000000 0.000000 -8.434923 11.176879 12.962254 3.584477 -4.138489 7.583615 1.270598 -0.111964 -7.395826 2.822861 -6.055156 -8.993262 1.049912 2.726564 -0.282503 -20.539104 3.240715 0.824454 -60.420842 -5.118332 12.854882 29.414060 -49.022710 -20.286688 5.465072 -6.418103 1.235093 21.707346 3.800556 0.558634 49.394666 9.559281 12.890774 -13.498972 52.028337 -1.815862 -3.520782 5.313872 -1.192316 
0.131756 2.009802 0.952464 0.319551 -2.856449 105.325641 -1.350064 -13.597394 -40.996819 -12.058783 8.224806 42.493051 10.943377 21.581562 -21.322596 0.000000 -0.000000 0.000000 -7.945424 -5.115507 -16.417108 2.692057 -10.902592 66.666472 0.152874 -13.223116 11.751652 0.000000 -0.000000 0.000000 -8.518036 8.319915 14.749129 3.544226 -3.950583 7.146517 1.701464 -0.677960 -7.446731 2.943639 -6.835188 -8.961762 3.003085 4.215546 -1.514622 -22.021563 -0.117331 0.670379 -57.810778 -8.975806 12.868474 30.284002 -52.550253 -22.545555 6.073134 -7.405754 2.164648 21.787748 3.900070 -0.159997 50.460409 5.710992 12.547186 -10.503359 50.664322 1.475026 -2.481080 5.293882 -1.838922 
0.129868 1.956182 0.956485 2.435868 -2.627344 104.594454 -3.133863 -12.247809 -33.588344 -13.324148 3.502296 39.636218 9.494545 21.942400 -22.085951 0.000000 -0.000000 0.000000 -9.178551 -5.921151 -26.014451 1.764990 -13.247542 75.839105 -0.701878 -12.423143 2.650175 0.000000 -0.000000 0.000000 -7.830682 5.557559 17.774130 3.263913 -3.625951 4.718300 2.366715 -1.687667 -6.580987 1.958818 -6.311203 -8.080822 5.163257 5.689395 -3.644601 -22.573191 -4.416815 0.771037 -56.189778 -12.957172 13.526254 35.539294 -55.722399 -27.774291 7.340402 -8.896537 2.776455 21.239813 4.025046 -0.589091 51.477752 1.925976 11.670132 -7.219666 48.907027 5.259603 -1.163464 5.488154 -1.428257 
0.125961 1.901174 0.961228 3.796764 -2.133882 104.068913 -3.831941 -8.792337 -25.461267 -14.550981 -1.972247 35.137163 7.549064 21.370767 -21.703422 0.000000 -0.000000 0.000000 -9.921320 -6.403866 -36.834288 1.468998 -15.065479 80.338862 -0.235657 -11.920019 -5.081457 0.000000 -0.000000 0.000000 -7.372500 2.631701 20.251550 3.108892 -2.914166 2.172360 2.951379 -2.576367 -5.550473 1.001674 -4.785378 -7.358756 6.629101 6.628422 -5.505246 -21.701027 -7.551654 0.813134 -55.781709 -17.365832 14.320175 43.891808 -59.161688 -34.609900 7.741109 -9.831132 2.784441 19.851637 3.676634 -0.236861 53.028122 -1.218356 10.735945 -4.732103 47.247038 9.414668 0.360235 5.704028 -1.957890 
0.120560 1.842816 0.967091 5.321248 -1.254688 103.925812 -2.781746 -4.481912 -16.892683 -15.012237 -7.914329 29.529063 4.701937 19.634226 -20.367732 0.000000 -0.000000 0.000000 -9.528088 -6.622874 -47.219141 0.812481 -16.871150 78.259539 0.187726 -13.565955 -8.131575 0.000000 -0.000000 0.000000 -6.620226 -0.940577 21.509011 3.222975 -2.028941 0.209468 3.237997 -3.080817 -4.696216 0.178197 -2.506565 -7.118893 7.171892 6.752653 -6.363471 -20.510539 -8.817050 0.186075 -56.397446 -21.853736 15.076673 53.440798 -63.067522 -41.555340 8.460950 -10.349241 3.827375 18.211589 2.518121 0.244038 54.131085 -3.775472 9.371338 -2.380135 45.924272 13.552439 1.902112 6.072725 -2.322271 
0.115299 1.778269 0.975518 6.688220 -0.412465 104.264753 -0.638241 0.292513 -7.627452 -13.910696 -14.742424 21.744692 0.446491 16.584782 -17.346937 0.000000 -0.000000 0.000000 -9.287320 -6.012894 -55.265371 1.327209 -18.203974 70.709699 0.816154 -14.586943 -11.122158 0.000000 -0.000000 0.000000 -5.559635 -4.535829 21.933882 3.053027 -1.219494 -4.735067 3.760472 -3.394497 -1.823769 -2.284227 -1.061229 -4.264871 7.837511 7.550471 -7.890693 -20.511165 -9.973377 0.548750 -56.379486 -24.089638 14.989149 64.645581 -66.438154 -51.004887 9.680998 -11.124583 2.778505 16.997941 1.587978 0.858428 53.741810 -6.882941 7.034318 0.765096 45.201967 18.174986 3.019709 6.355165 -2.210532 
0.109036 1.709502 0.987917 7.174314 0.886069 104.411119 2.278403 2.864668 1.928252 -10.303749 -18.630475 12.435046 -3.204249 14.149407 -10.918533 0.000000 -0.000000 0.000000 -8.897425 -3.626199 -58.755759 2.137117 -18.857307 56.777137 1.345752 -13.272674 -12.990176 0.000000 -0.000000 0.000000 -4.287936 -7.108582 20.210326 3.770779 -0.306017 -3.640297 3.968173 -3.507932 -2.229614 -3.926805 0.409598 -4.668277 6.383853 8.000182 -7.216842 -19.566697 -8.904149 -0.040005 -57.838567 -25.149525 16.848891 76.246776 -69.287607 -62.147328 11.238480 -10.973783 0.300596 15.972530 0.614179 0.992638 52.441362 -8.123622 8.226420 0.669566 44.704659 18.293934 3.081864 6.837210 -1.695019 
0.101784 1.636286 1.000102 6.874323 2.591099 104.490242 5.390755 4.050718 8.427298 -7.661019 -16.796924 7.896217 -6.278250 12.496466 -0.927660 0.000000 -0.000000 0.000000 -7.134931 0.534981 -58.444536 2.956739 -17.282141 41.883229 -0.000011 -12.271852 -12.838083 0.000000 -0.000000 0.000000 -2.311522 -8.484038 18.253776 4.246745 -0.106785 -1.377000 4.068227 -2.996523 -4.377177 -4.967577 2.022109 -3.538950 4.456098 7.882418 -7.290216 -20.730002 -7.641015 0.055855 -57.482063 -23.125151 17.400648 89.162460 -72.120668 -74.804745 9.761435 -10.538536 0.504120 16.119129 0.529074 2.281545 50.163607 -7.734787 9.073406 0.702905 44.205529 16.854923 3.858483 6.554843 -1.167856 
